# xmcd CD database file
#
# Track frame offsets:
#	150
#	11612
#	25790
#	44311
#	56372
#	65177
#	86802
#	99667
#	115577
#	127026
#	143011
#	153351
#
# Disc length: 2228 seconds
#
# Revision: 5
# Processed by: cddbd v1.5.2PL0 Copyright (c) Steve Scherf et al.
# Submitted via: CDex 1.72
#
DISCID=9c08b20c
DTITLE=Bogguss, Suzy (USA-03-Swing-swng) - Swing
DYEAR=2003
DGENRE=Swing
TTITLE0=Straighten Up and Fly Right
TTITLE1=My Dream is You
TTITLE2=Comes Love
TTITLE3=Sweetheart (Waitress in a Donut Shop)
TTITLE4=Jumping Into Spring
TTITLE5=Do Nothing Till You Hear From Me
TTITLE6=Burning the Toast
TTITLE7=It's Always New to Me
TTITLE8=Cupid Shot Us Both With One Arrow (With Ray Benson)
TTITLE9=Picadilly Circus
TTITLE10=It's All About You
TTITLE11=Stay Out of My Dreams
EXTD=YEAR: 2003
EXTT0=
EXTT1=
EXTT2=
EXTT3=
EXTT4=
EXTT5=
EXTT6=
EXTT7=
EXTT8=
EXTT9=
EXTT10=
EXTT11=
PLAYORDER=
